<?xml version="1.0" standalone="no"?>
<!DOCTYPE svg PUBLIC "-//W3C//DTD SVG 20010904//EN"
 "http://www.w3.org/TR/2001/REC-SVG-20010904/DTD/svg10.dtd">
<svg version="1.0" xmlns="http://www.w3.org/2000/svg"
 width="512.000000pt" height="512.000000pt" viewBox="0 0 512.000000 512.000000"
 preserveAspectRatio="xMidYMid meet">

<g transform="translate(0.000000,512.000000) scale(0.100000,-0.100000)"
fill="#000000" stroke="none">
<path d="M2395 5109 c-162 -23 -395 -119 -520 -213 -147 -112 -272 -260 -353
-421 -92 -182 -122 -333 -122 -607 l0 -189 -30 -37 c-84 -105 -81 -265 7 -380
26 -34 26 -36 20 -156 -11 -214 -50 -380 -137 -586 -56 -134 -70 -198 -70
-330 0 -141 39 -268 120 -385 l31 -46 -69 -74 c-79 -85 -144 -200 -167 -296
-12 -53 -15 -170 -15 -706 l0 -642 26 -20 27 -21 1417 0 1417 0 27 21 26 20 0
642 c0 536 -3 653 -15 706 -23 96 -88 211 -167 296 l-69 74 31 46 c82 119 120
243 120 390 0 126 -17 206 -69 322 -84 191 -127 374 -138 588 l-5 120 35 53
c43 63 57 107 57 183 0 69 -21 132 -60 181 l-30 37 0 189 c0 274 -30 425 -122
607 -201 399 -610 650 -1051 644 -51 -1 -119 -5 -152 -10z m405 -180 c283 -71
523 -264 654 -526 75 -150 106 -295 106 -501 l0 -134 -117 4 c-110 4 -121 6
-168 35 -27 17 -81 40 -120 52 -127 37 -333 189 -515 377 -120 125 -211 249
-290 396 -62 115 -86 135 -139 117 -40 -14 -46 -26 -70 -140 -63 -301 -189
-553 -383 -763 l-70 -76 -64 0 -64 0 0 134 c0 319 93 560 295 761 147 147 355
253 560 285 94 14 287 4 385 -21z m-373 -701 c73 -89 251 -260 349 -333 l77
-59 -24 -15 c-100 -66 -164 -139 -197 -225 l-19 -51 -52 -3 c-42 -3 -52 0 -57
15 -39 117 -128 219 -238 274 -63 30 -80 34 -171 37 l-102 4 54 80 c66 98 141
252 183 373 17 50 33 96 35 104 4 9 25 -14 56 -60 28 -41 76 -104 106 -141z
m-221 -546 c23 -12 60 -42 82 -67 96 -109 96 -261 0 -370 -52 -59 -107 -86
-185 -93 -80 -6 -137 10 -199 57 -126 95 -145 284 -40 408 15 17 55 46 89 63
57 29 68 31 137 27 50 -2 89 -11 116 -25z m944 -8 c103 -44 113 -52 147 -121
57 -119 23 -266 -81 -344 -62 -47 -119 -63 -199 -57 -78 7 -133 34 -185 93
-124 141 -78 362 93 441 72 34 123 31 225 -12z m-1520 -219 c0 -85 -3 -155 -7
-155 -62 1 -139 64 -153 124 -20 89 51 184 138 186 22 0 22 -1 22 -155z m1960
127 c110 -82 70 -247 -67 -277 l-33 -7 0 158 0 157 37 -6 c21 -4 49 -15 63
-25z m-984 -229 c33 -153 114 -258 253 -326 63 -31 71 -32 182 -32 l117 0 81
41 81 42 0 -25 c0 -14 -14 -66 -31 -117 -86 -259 -304 -456 -567 -511 -86 -19
-238 -19 -324 0 -198 42 -382 171 -491 346 -45 73 -107 235 -107 281 l0 24 82
-40 c81 -41 82 -41 197 -41 111 0 120 2 182 32 139 68 220 173 253 326 6 24
11 27 46 27 35 0 40 -3 46 -27z m-970 -291 c23 -157 80 -303 169 -427 57 -80
186 -201 268 -250 l66 -40 1 -227 0 -226 -257 -4 c-233 -4 -265 -7 -327 -27
-79 -26 -76 -28 -131 64 -59 99 -78 178 -73 303 5 102 8 113 61 243 89 216
128 374 143 587 l7 93 31 -3 c31 -3 31 -4 42 -86z m1928 -4 c16 -216 54 -371
143 -587 53 -130 56 -141 61 -243 5 -125 -14 -204 -73 -303 -55 -92 -52 -90
-131 -64 -62 20 -94 23 -326 27 l-258 4 0 229 c0 126 4 229 8 229 21 0 160
103 223 165 153 151 251 350 274 555 9 77 11 80 43 80 l29 0 7 -92z m-1144
-799 c102 -17 236 -11 368 17 l32 7 0 -252 0 -252 25 -24 c16 -17 35 -25 60
-25 19 0 35 -4 35 -10 0 -5 -48 -135 -106 -289 l-106 -279 -81 -4 c-45 -2
-121 -2 -169 0 l-86 4 -102 270 c-56 148 -105 278 -107 289 -5 16 0 19 31 19
26 0 44 7 61 25 l25 24 0 252 0 252 33 -7 c17 -4 57 -11 87 -17z m240 -1276
c0 -14 -94 -263 -100 -263 -5 0 -100 249 -100 263 0 4 45 7 100 7 55 0 100 -3
100 -7z"/>
<path d="M2382 4897 c-44 -47 -25 -96 102 -267 171 -230 447 -460 714 -594 82
-41 109 -44 146 -15 20 16 26 29 26 58 0 47 -20 66 -120 115 -263 131 -546
385 -706 632 -29 45 -60 84 -69 88 -34 13 -72 6 -93 -17z"/>
<path d="M2066 3570 c-69 -21 -132 -90 -143 -156 -5 -27 0 -38 25 -64 17 -16
38 -30 47 -30 30 0 75 30 81 55 7 29 35 48 59 39 8 -4 22 -19 31 -35 20 -40
58 -63 89 -55 115 29 64 199 -74 245 -39 13 -74 13 -115 1z"/>
<path d="M2935 3568 c-103 -36 -170 -163 -115 -218 44 -44 103 -32 134 29 9
16 23 31 31 35 24 9 52 -10 59 -39 8 -31 57 -58 91 -49 38 10 68 53 62 91 -18
110 -154 189 -262 151z"/>
<path d="M2319 2951 c-34 -34 -36 -54 -10 -97 43 -71 151 -124 251 -124 100 0
208 53 251 124 26 43 24 63 -10 97 -40 39 -69 37 -127 -11 -80 -66 -153 -66
-230 0 -55 48 -85 51 -125 11z"/>
</g>
</svg>
